<svg
  xmlns="http://www.w3.org/2000/svg"
  viewBox="110 42 280 397"
  fill="currentColor"
  preserveAspectRatio="xMidYMid meet"
><path fill="currentColor" d="M256 54c4.35 2.302 7.125 5.464 9 10v3h2c1.138 1.534 1.138 1.534 2.398 3.707l1.434 2.438 1.543 2.668q1.632 2.77 3.27 5.539l1.69 2.86c2.509 4.2 5.107 8.343 7.728 12.475l1.496 2.362c3.822 6.011 7.698 11.987 11.578 17.962 4.492 6.93 8.815 13.96 13.096 21.023 5.065 8.353 10.175 16.66 15.517 24.841 3.639 5.579 7.141 11.198 10.445 16.984 1.368 2.381 2.758 4.741 4.172 7.094 5.323 8.88 10.221 17.865 14.725 27.188a417 417 0 0 0 2.955 5.894c3.077 6.147 5.532 12.54 7.953 18.965l.791 2.087c13.02 34.933 15.275 77.663-.103 112.288Q366.352 356.192 365 359l-1.305 2.871c-2.826 6.011-6.118 11.468-9.945 16.879l-1.323 1.882c-1.088 1.497-2.251 2.939-3.427 4.368h-2l-.781 1.766c-1.317 2.414-2.77 4.051-4.719 5.984l-1.844 1.86C338 396 338 396 336 396v2h-2v2h-2v2c-4.385 3-4.385 3-7 3v2a98 98 0 0 1-6.625 4.25l-2.074 1.22c-10.09 5.82-20.307 9.712-31.488 12.842l-2.735.773c-14.123 3.769-28.58 3.118-43.078 2.915l-3.484-.016c-19.59-.792-39.889-10.13-56.516-19.984v-2l-6-2v-2l-1.562-.687C166.458 399.63 161.707 396.3 158 392v-2h-2a131 131 0 0 1-5.25-6.437l-1.507-1.954C131.7 358.707 123.122 332.811 122 304l-.125-2.648c-.603-24.504 5.343-50.023 15.125-72.352l1.188-2.715c4.566-10.23 9.443-20.289 15.328-29.828 3.036-5.026 5.858-10.205 8.484-15.457h2l.309-1.64c.869-2.966 2.246-5.415 3.754-8.11l1.66-2.984L171 166h2l.246-1.566c1.066-3.44 2.938-6.329 4.816-9.371l1.236-2.028q1.255-2.055 2.517-4.108 1.542-2.51 3.068-5.029c5.001-8.205 10.177-16.299 15.37-24.385l1.77-2.767 1.592-2.479A69 69 0 0 0 207 108h2l.625-2.437c1.166-3.023 2.274-5.058 4.078-7.684 3.238-4.776 6.344-9.624 9.422-14.504l1.55-2.445c2.895-4.583 5.676-9.202 8.325-13.93h2l.188-2.125C238.116 54.513 246.522 52.58 256 54m-7 23-2 3.375-1.125 1.898c-1.026 1.702-1.026 1.702-.875 3.727h-2l-.845 1.569c-3.508 6.42-7.32 12.617-11.218 18.806l-1.999 3.186a6968 6968 0 0 1-7.61 12.095q-6.66 10.565-13.351 21.11l-3.04 4.797-1.493 2.357a1006 1006 0 0 0-11.704 19.031c-2.06 3.408-4.176 6.683-6.556 9.877-2.468 2.942-2.468 2.942-2.184 6.172h-2l-1.562 3.313c-1.728 3.473-3.689 6.692-5.813 9.937-3.015 4.663-5.55 9.405-7.96 14.402a182 182 0 0 1-3.83 7.29c-5.043 9.133-8.962 18.183-12.178 28.106-.68 2.023-1.427 4.01-2.192 6.003-11.968 31.576-9.64 65.176 3.38 95.944C156.688 362.734 167.35 378.012 179 386h2v2c1.53 1.244 1.53 1.244 3.55 2.426l2.29 1.407 2.472 1.48 2.514 1.51c25.893 15.376 56.097 20.462 85.545 13.365 12.047-3.224 25.68-7.416 35.629-15.188v-2l2.25-.812c2.64-1.14 4.606-2.282 6.75-4.188v-2l1.8-.82c11.168-5.99 18.735-20.28 24.2-31.18l.946-1.767c14.313-27.273 14.54-61.501 5.816-90.514-1.152-3.61-2.46-7.16-3.762-10.719q-.91-2.968-1.812-5.937C346.6 235.32 342.775 228.213 339 221l-2.203-4.273c-4.912-9.468-10.183-18.66-15.797-27.727l-1.126-1.82c-2.446-3.94-4.909-7.867-7.375-11.794-2.984-4.75-5.96-9.506-8.937-14.261l-1.934-3.086c-3.027-4.836-6.03-9.684-8.964-14.578l-1.533-2.551a657 657 0 0 1-2.807-4.73c-1.054-1.76-2.181-3.476-3.324-5.18h-2l-.384-1.799c-.966-3.452-3.005-6.275-4.928-9.263l-1.332-2.099q-1.423-2.243-2.853-4.482a1609 1609 0 0 1-4.589-7.248c-5.556-8.823-5.556-8.823-11.16-17.617l-1.879-2.93-1.57-2.433A67 67 0 0 1 251 77z"/><path fill="currentColor" d="m240 239 2.336 1.309c5.42 3.205 5.42 3.205 6.664 5.691 3.648-1.683 6.447-3.899 9.512-6.465 6.525-4.025 13.308-5.07 20.863-4.972l2.513.02c6.644.174 12.17 1.334 18.112 4.417l2.156 1.027c8.737 4.721 14.79 13.674 17.844 22.973 4.053 14.979 1.091 31.554-5.937 45-4.486 7.325-10.6 13.395-17.063 19h-2v2h-2l-.812 1.938C291 333 291 333 288 334v2c-1.293 1.305-1.293 1.305-3.187 2.875a208 208 0 0 0-8.168 7.254l-1.76 1.65a799 799 0 0 0-3.491 3.308C267.22 355 267.22 355 265 355v2h-2v2c-4.057 4.057-8.075 6.956-14 7-2.956-.924-5.415-2.313-8-4l-2.5-1.625L237 359v-2h-2v-2l-1.812-.875C231 353 231 353 228 351v-2l-1.75-.812c-2.306-1.217-4.27-2.491-6.25-4.188v-2h-2v-2l-4-2v-2l-1.687-.687c-2.955-1.677-4.944-3.886-7.313-6.313l-2.812-2.187L200 325v-2h-2v-2h-2a93 93 0 0 1-4.812-5.812l-1.362-1.78C179.316 299.272 177.522 284.17 179 267c1.711-10.035 7.71-19.216 15.938-25.102 13.128-7.975 31.158-10.996 45.062-2.898m-36 19v2h-2q-1.223 2.154-2.437 4.313l-1.372 2.425c-3.404 6.464-3.024 14.112-1.613 21.14 2.46 7.681 7.044 14.172 12.422 20.122h2l.688 1.75c1.66 2.846 3.704 4.248 6.312 6.25a288 288 0 0 1 6.8 6.875l1.887 1.938c.873.906.873.906 1.762 1.832 1.459 1.574 1.459 1.574 3.551 1.355l.77 1.79c1.365 2.453 2.77 3.788 4.917 5.585l2.137 1.809L242 339q2.002 1.716 4 3.438l3 2.562c3.033-1.364 5.205-2.927 7.602-5.223l1.984-1.88 2.039-1.96q2.015-1.927 4.04-3.847l1.794-1.723C268 329 268 329 270 328v-2h2v-2h2v-2l1.734-.781c2.477-1.333 4.4-2.87 6.516-4.719l2.14-1.844c1.842-1.51 1.842-1.51 1.61-3.656h2c9.264-8.548 15.823-20.321 16.438-33-.2-6.663-2.78-12.513-6.438-18h-2v-2c-6.728-3.806-13.238-7.3-21.129-5.52-7.859 2.7-14.219 7.355-18.058 14.833L256 269c-3.127 1.564-6.58 1.4-10 1-3.191-2.128-4.046-3.911-5.84-7.191-3.391-5.288-9.19-8.727-15.152-10.352-7.67-1.378-14.64 1.297-21.008 5.543"/><path fill="currentColor" d="m294 303 1 3a680 680 0 0 1-3.875 4l-2.18 2.25C287 314 287 314 285 314v2l-3-1 4-2v-2h2l.75-1.75c1.417-2.55 3.126-4.268 5.25-6.25"/><path fill="currentColor" d="M262 334c0 3 0 3-1.75 4.824l-2.25 1.863-2.25 1.887L254 344l-2-1z"/><path fill="currentColor" d="m189 248 1 3c-1.67 2.673-3.724 4.832-6 7l-1-2z"/><path fill="currentColor" d="m300 319 3 2-6 5-2-2z"/><path fill="currentColor" d="m231 71 1 4-2 3h-2v2l-2-1z"/></svg>